<?xml version="1.0" encoding="utf-8"?>
<!-- Generator: Adobe Illustrator 23.1.0, SVG Export Plug-In . SVG Version: 6.00 Build 0)  -->
<svg version="1.1" id="Warstwa_1" xmlns="http://www.w3.org/2000/svg" xmlns:xlink="http://www.w3.org/1999/xlink" x="0px" y="0px"
	 viewBox="0 0 342.8 342.8" style="enable-background:new 0 0 342.8 342.8;" xml:space="preserve">
<style type="text/css">
	.st0{fill:#17AFE3;}
	.st1{clip-path:url(#SVGID_2_);}
	.st2{fill:url(#SVGID_3_);}
	.st3{fill:url(#SVGID_4_);}
	.st4{fill:url(#SVGID_5_);}
	.st5{fill:url(#SVGID_6_);}
	.st6{fill:url(#SVGID_7_);}
	.st7{opacity:0.46;}
	.st8{opacity:0.53;enable-background:new    ;}
	.st9{opacity:0.18;fill:#FFFFFF;enable-background:new    ;}
	.st10{fill:#FFFFFF;}
	.st11{fill:#DCEBF0;}
</style>
<title>Zasób 8</title>
<g>
	<g>
		<g id="OBJECTS">
			<circle class="st0" cx="171.4" cy="171.4" r="171.4"/>
			<g>
				<defs>
					<circle id="SVGID_1_" cx="171.4" cy="171.4" r="171.4"/>
				</defs>
				<clipPath id="SVGID_2_">
					<use xlink:href="#SVGID_1_"  style="overflow:visible;"/>
				</clipPath>
				<g class="st1">
					
						<linearGradient id="SVGID_3_" gradientUnits="userSpaceOnUse" x1="63.1698" y1="340.1509" x2="221.6098" y2="24.2709" gradientTransform="matrix(1 0 0 -1 1.081878e-05 346)">
						<stop  offset="0" style="stop-color:#BADB72"/>
						<stop  offset="1" style="stop-color:#7ECF7E"/>
					</linearGradient>
					<path class="st2" d="M159,343.8c-7.6,0.6-15.2-3.3-20.2-9.1s-7.7-13.3-9-20.9c-0.6-3.7-0.9-7.6-2.6-11
						c-1.3-2.6-3.3-4.8-4.2-7.5c-1.5-4.8,0.7-10,0-15s-4.3-9.4-4.7-14.5c-0.4-4.6,1.9-9.3,0.6-13.8c-1.7-5.5-7.9-7.9-13-10.7
						c-7.2-3.9-13.1-9.8-17-17.1c-1.4-2.7-2.6-5.7-2.2-8.7c0.7-5.2,5.6-8.6,9.5-12.1s7.3-9.4,4.3-13.7c-2.4-3.6-7.6-3.6-11.4-5.7
						c-6.2-3.2-8.3-11.2-13.9-15.4c-2.4-1.6-5.1-2.8-7.9-3.5l-4.9-1.6c-4.7-1.7-9.6-3-14.5-3.8c-3.2-0.5-6.4-0.6-9.4-1.9
						s-5.6-3.9-5.7-7.1c-0.1-2.6,1.6-4.9,2.1-7.5c1.1-5.2-2.5-10.3-6.9-13.4c-4.3-3.1-9.4-5-13.6-8.3c-6.1-5-9.6-12.6-9.2-20.5h0.2
						c7.1-21.1,18-38.2,32.2-55.4c7-8.5,16.2-16.9,27.1-16c10.7,0.9,19.6,10.6,30.2,9.6c1.8,0,3.5-0.7,4.8-2c1.2-1.3,1.4-3.7,0-4.8
						c-1-0.6-2.1-1-3.2-1c-2.7-0.3-5.5-1.1-7.2-3.2s-1.3-5.9,1.2-6.8s5,1.2,7.6,2.1c7.9,2.6,15.8-7.9,23.8-5.4
						c1.5,2.4-0.7,5.4-2.7,7.4s-3.9,5.3-2,7.4c1.8,1.9,5.1,0.6,6.6-1.6s1.9-4.8,3.4-7c1.4-2.1,4.8-3.5,6.5-1.6
						c1.5,1.6,0.9,4.2,1.9,6.1s3.8,2.5,6,1.8s3.9-2.1,5.8-3.4c6.9-4.9,16.6-7.3,23.5-2.4c3.4,2.4,6,6.6,10.2,7
						c1.2,0.1,2.6-0.1,3.7,0.4c2.5,1,2.8,4.4,2.4,7c-0.4,2.9-1.9,6.4-4.8,6.6c-1.8,0.1-3.3-1.2-4.6-2.5c-4.8-4.6-10.6-10-17-8.4
						c-6,1.5-9.1,8.6-15,10.6c-6.7,2.3-13.9-3-20.9-1.9c-4.6,0.7-8.2,4-11.5,7.3c-2.8,2.9-5.4,7.8-2.4,10.3s9.5-0.1,10.9,3.7
						c0.6,1.7-0.4,3.5-0.3,5.2c0.1,2.9,3.4,4.9,6.3,4.4c2.8-0.5,5.1-2.7,6.6-5.2c1.2-2,2.3-4.5,4.6-4.9c3.3-0.6,5.6,3.7,8.9,4
						c3.7,0.3,5.7-4.1,8.5-6.4s7.5-2.5,11-0.8c3.4,1.9,6,5,7.3,8.7c1,2.6,1.3,6.1-0.9,7.8c-1.2,0.8-2.6,1.2-4,1.2
						c-7.6,0.6-16.1-1.7-22.3,2.8c-4.5,3.3-6.2,9-9.3,13.6c-5.4,7.7-14.8,11.4-23,16s-16.4,12.2-15.9,21.6c0.1,2.3,0.6,4.9-1.1,6.4
						c-1.8,1.7-4.9,0.5-6.5-1.4s-2.3-4.4-3.7-6.4c-3.3-4.5-9.8-5.5-15-3.4c-5.2,2-9,6.5-11.7,11.3c-1.5,2.6-2.8,5.5-2.8,8.5
						s1.6,6.2,4.4,7.3c6.4,2.4,12.2-6.8,19-5.8c0.7,0.1,1.3,0.4,1.8,0.8c2.5,2.8-5.1,7.6-2.1,9.9c0.8,0.4,1.7,0.6,2.6,0.7
						c2.2,0.5,3.6,2.8,4,5.1s0.1,4.6,0.3,6.8c0.4,4.4,3.4,9,7.8,9.4c7.2,0.6,10.7-9.1,17.4-11.9c4.1-1.6,8.8-0.5,11.6,2.9
						c1.5,1.8,2.4,4.1,4.5,5.2c3.3,1.7,7.4-0.9,10.8,0.3s4.8,5.2,7.5,7.5c4.1,3.4,10.5,2.6,14.6,6.1c1.8,1.5,3,3.7,4.4,5.7
						c3.2,4.5,8,7.6,13.5,8.8c4.4,0.8,11-1.6,14.3,2.3c1.8,2.1,1.9,5.5,4.2,7c1.3,0.9,3,0.9,4.3,1.6c3,1.5,3.5,5.9,2.3,9
						s-3.6,5.8-5.2,8.8c-1.6,3-2.3,6.5-2.1,9.9c0.3,4.4,2.1,9.3-0.5,12.9c-4.3,5.8-15.4,1.4-19.6,7.3c-2.1,3-1.2,7.1-1.4,10.8
						c-0.3,6.2-3.9,11.9-8.5,16s-10.1,7.2-15.4,10.5c-3.3,2-6.9,5-6.4,8.9c0.4,2.8,2.9,4.9,4.1,7.5c1.5,3.1,0.9,6.8,1,10.3
						s1.6,7.5,4.9,8.4c1.9,0.5,4.8,0.6,4.8,2.6c-1,1.5-2.4,2.7-4,3.5"/>
					
						<linearGradient id="SVGID_4_" gradientUnits="userSpaceOnUse" x1="251.7903" y1="302.2816" x2="395.2803" y2="148.8315" gradientTransform="matrix(1 0 0 -1 1.081878e-05 346)">
						<stop  offset="0" style="stop-color:#BADB72"/>
						<stop  offset="1" style="stop-color:#7ECF7E"/>
					</linearGradient>
					<path class="st3" d="M294.3,35.4c-1.3,5.6-5.4,10.2-10.9,12.1c-1.8,0.6-3.8,0.9-5.3,2.1s-2.1,3.8-0.6,5s4.3,0.3,5.4,2
						c0.6,1,0.1,2.4,0.6,3.5c1.4,3.3,7.4-0.9,9.9,1.6c1.7,1.7,0.1,4.7-2.1,5.6s-4.7,0.5-7,1c-3.3,0.7-5.9,3.1-8.3,5.4l-14,13
						c-1.5,1.6-3.3,2.9-5.3,3.8c-3.2,1.2-6.7,0.4-10.1,0.2s-7.4,0.6-8.9,3.6c-1.9,3.5,0.6,7.7,3,10.9c1.5,2,3.4,4.1,5.8,3.9
						s3.9-2.9,5.3-5c2.8-4.3,6.8-7.6,10.7-10.8c2.1-1.7,4.3-3.4,7-3.6c2.9-0.2,5.6,1.7,8.5,1.5c2.6-0.1,5.2-1.8,7.6-1
						c0.9,0.3,1.7,0.8,2.4,1.4l5.9,4.6c2.9,2.3,6.2,5.5,5.1,9c-0.5,1.8-2.1,3.7-1.1,5.2s3.8,0.4,4.6-1.3s0.8-3.8,1.8-5.5
						c1.4,1.5,2.8,3,4.2,4.4c-1.1-6.3-3.9-12.2-8-17c1.7-1.4,4.4-0.6,5.9,1s2.2,3.8,3.2,5.7c1.7,3.3,4.1,6.2,7.2,8.4
						c0.6,0.5,1.3,0.8,2.1,0.8c1.9-0.1,2.4-2.6,2.5-4.5s1.2-4.3,3-3.9c1.1,4,3.6,7.5,7.1,9.9c3.6,2.3,8.1,2.5,11.8,0.6
						c6.4-3.7,6.6-12.8,5.2-20c-2.2-11.5-6.8-22.9-15.1-31.3s-23.7-25-35.2-22.4"/>
					
						<linearGradient id="SVGID_5_" gradientUnits="userSpaceOnUse" x1="239.1252" y1="283.5216" x2="422.1951" y2="5.2616" gradientTransform="matrix(1 0 0 -1 1.081878e-05 346)">
						<stop  offset="0" style="stop-color:#BADB72"/>
						<stop  offset="1" style="stop-color:#7ECF7E"/>
					</linearGradient>
					<path class="st4" d="M352.9,130.3c-6.4-6.6-18.5-0.4-26.3-5.2c-2.2-1.3-3.9-3.4-6.1-4.8s-5.4-1.8-7.1,0.2
						c-0.4,0.6-0.8,1.2-1.2,1.9c-2.9,4.5-9.7,3.5-14.9,1.9c-3.6-1.1-7.9-3-8-6.8c-0.1-1.3,0.5-2.7,0.3-4c-0.5-3.2-4.8-4.4-7.9-3.3
						s-5.5,3.4-8.6,4.7c-5,2-10.6,0.5-15.9,0.4c-5.4-0.1-11.8,2.1-12.7,7.4c-0.3,1.4-0.1,3-0.7,4.3s-2.2,2.3-3.6,3.2
						c-6.9,4.2-12.7,10-16.8,17c1.3,2.1,5.7,0.2,6.5,2.5c0.4,1.4-1.1,2.5-2.1,3.4c-5,4.3-3.9,12.2-1.6,18.4c2.1,5.4,5,10.7,9.4,14.5
						s10.6,5.8,16.2,4.2c3.4-1,6.3-3.2,9.4-4.8s6.9-2.6,10.1-1.1c2.2,1.1,3.8,3.2,6,4.2c4.4,2,11.2-0.2,13,4.3
						c1.3,3.1-1.5,6.3-1.6,9.7c-0.1,3.1,2.2,5.8,4.3,8.2c3.4,3.9,6.5,8.2,8.1,13s1.7,10.5-0.8,15c-2.1,3.9-6.2,7.9-4.3,11.9
						c0.7,1.4,2.1,2.4,3,3.8c3.1,4.3,0.5,10.6,2.7,15.5c1.2,2.7,3.8,4.6,4.8,7.3c1,2.5,0.6,5.4,0.7,8.1s1.1,5.8,3.6,6.9
						c2,0.8,4.3,0.1,6.3-0.9c6.5-3.4,11.3-9.5,14.6-16.1s5.3-13.8,7.6-20.8c10.2-31.1,27-59.9,35.5-91.4c2-7.4,3.5-15.4,0.8-22.6
						s-11.4-12.5-18.3-9.2"/>
					
						<linearGradient id="SVGID_6_" gradientUnits="userSpaceOnUse" x1="249.7318" y1="297.5487" x2="280.7319" y2="259.5487" gradientTransform="matrix(1 0 0 -1 1.081878e-05 346)">
						<stop  offset="0" style="stop-color:#BADB72"/>
						<stop  offset="1" style="stop-color:#7ECF7E"/>
					</linearGradient>
					<path class="st5" d="M268.8,72c-0.4,1.6-1.3,3-2.5,4.1c-1.3,1-3.5,0.9-4.3-0.5c-0.2-0.5-0.4-1.1-0.4-1.7L260,55.3
						c-0.1-0.5,0-0.9,0.1-1.3c0.4-1.1,2-1.4,3-0.8c1,0.7,1.8,1.6,2.3,2.7c3.2,5.6,6.4,12.7,2.9,18.1"/>
					
						<linearGradient id="SVGID_7_" gradientUnits="userSpaceOnUse" x1="242.3579" y1="290.45" x2="273.3578" y2="252.45" gradientTransform="matrix(1 0 0 -1 1.081878e-05 346)">
						<stop  offset="0" style="stop-color:#BADB72"/>
						<stop  offset="1" style="stop-color:#7ECF7E"/>
					</linearGradient>
					<path class="st6" d="M255.3,66.8c-3.3-0.2-5.5,4.4-3.4,6.9s7.1,0.7,7.2-2.6s-4.5-5.5-7-3.3"/>
				</g>
			</g>
			<g class="st7">
				<path class="st8" d="M337.4,171.1c0-91.7-74.4-166-166.1-166S5.3,79.4,5.3,171.1s74.4,166,166.1,166c0,0,0,0,0,0
					C263.1,337.1,337.4,262.8,337.4,171.1C337.4,171.1,337.4,171.1,337.4,171.1z"/>
				<circle class="st9" cx="183.2" cy="154.4" r="135.2"/>
				<path class="st9" d="M294.7,126c0-53.7-43.5-97.3-97.3-97.3c-53.7,0-97.3,43.5-97.3,97.3c0,53.7,43.5,97.3,97.3,97.3
					S294.7,179.7,294.7,126C294.7,126,294.7,126,294.7,126z"/>
			</g>
			<path class="st10" d="M89.1,52.1c0.4,0,0.8,0,1.2,0.1C92.6,46.2,99,42,106.4,42c7.1,0,13.2,3.8,15.7,9.3c1.1-0.4,2.3-0.6,3.4-0.6
				c4.7,0,8.5,3.2,8.5,7.2c0,0.5-0.1,0.9-0.1,1.3H81.5C81.6,55.2,85,52,89.1,52.1z"/>
			<path class="st10" d="M150.3,294.2c0-6.1,4.9-11,11-11c0.6,0,1.2,0.1,1.7,0.1c3.4-9.1,12.5-15.6,23.3-15.6
				c9.7-0.1,18.6,5.5,22.7,14.4c1.6-0.6,3.3-1,5-1c4.9-0.1,9.4,2.6,11.5,7c3.2-2.5,7.8-2,10.3,1.1c1,1.3,1.6,2.9,1.6,4.6
				c0,0.1,0,0.2,0,0.4L150.3,294.2z"/>
			<path class="st10" d="M305.6,147.1c-1,0.1-1.9,0.3-2.9,0.6c-2.7-8.5-11-14-19.9-13.2c-2.1,0.2-4.1,0.7-6,1.6
				c-7.4-11.8-23-15.4-34.8-7.9c-5.4,3.4-9.3,8.7-11,14.8c-2.9-1.2-6.1-1.7-9.3-1.5c-9.4,0.8-16.5,8.1-16.5,16.7l117.3,0.1
				C320.2,151.1,313.1,146.4,305.6,147.1z"/>
			<path class="st11" d="M253.4,158.3l-68.6-0.1c0,0,1.2-10.2,19.1-9.9c0,0,2.8-15.4,18.1-15.4s18.3,16.3,18.3,16.3
				S253.3,147.5,253.4,158.3z"/>
			<path class="st10" d="M18.1,201.4c1.2,0,2.3,0.2,3.5,0.6c2.6-5.5,8.6-9.3,15.7-9.3c3.4,0,6.7,0.9,9.6,2.7
				c2.1-5.4,7.4-13.9,19.2-13.9c17.2,0,20.3,17.3,20.3,17.3c20.1-0.3,21.4,11.1,21.4,11.1l-45.7,0.1v0.1H9.7
				c-0.1-0.4-0.2-0.9-0.2-1.3C9.5,204.6,13.4,201.4,18.1,201.4z"/>
			<path class="st11" d="M223.4,287.1c0.4,0,0.8,0,1.1,0.1c3.5-8.4,13.1-12.4,21.6-8.9c3.8,1.6,6.8,4.4,8.6,8.1
				c1-0.4,2.2-0.6,3.3-0.6c4.5,0,8.1,3.2,8.1,7.2c0,0.5-0.1,0.9-0.1,1.4h-49.7C216.2,290.3,219.5,287.1,223.4,287.1
				C223.4,287.1,223.4,287.1,223.4,287.1z"/>
		</g>
	</g>
</g>
</svg>
